{"glyphs":{":":{"x_min":0,"x_max":297,"ha":297,"o":"m 148 267 b 191 267 225 301 225 344 b 225 386 190 420 148 420 b 107 420 72 385 72 344 b 72 302 106 267 148 267 z m 148 -9 b 191 -9 225 25 225 67 b 225 110 190 144 148 144 b 107 144 72 109 72 67 b 72 25 106 -9 148 -9 z"},"$":{"x_min":0,"x_max":553,"ha":553,"o":"m 517 193 b 517 278 467 340 354 389 l 313 407 l 313 636 b 363 631 384 612 384 594 b 384 580 367 577 367 547 b 367 514 387 488 426 488 b 465 488 487 513 487 548 b 487 612 417 659 313 665 l 313 732 l 260 732 l 260 665 b 136 656 64 586 64 485 b 64 393 123 329 219 289 l 260 271 l 260 27 b 210 30 153 46 153 72 b 153 86 173 94 173 126 b 173 158 152 183 113 183 b 71 183 51 155 51 123 b 51 51 149 1 260 -5 l 260 -97 l 313 -97 l 313 -3 b 412 5 517 56 517 193 z m 161 544 b 161 595 196 628 260 635 l 260 430 b 206 454 161 482 161 544 z m 313 28 l 313 248 b 369 221 414 187 414 128 b 414 67 374 36 313 28 z"},"?":{"x_min":0,"x_max":530,"ha":530,"o":"m 214 201 l 254 201 l 254 230 b 254 380 471 383 471 534 b 471 640 364 671 276 671 b 188 671 69 641 69 545 b 69 498 97 464 146 464 b 191 464 221 492 221 532 b 221 569 194 571 194 597 b 194 625 224 645 258 645 b 295 645 324 618 324 546 b 324 408 214 405 214 230 l 214 201 z m 238 -9 b 280 -9 315 25 315 68 b 315 110 279 144 238 144 b 196 144 161 109 161 67 b 161 25 196 -9 238 -9 z"},"<":{"x_min":0,"x_max":564,"ha":564,"o":"m 327 365 l 312 332 l 327 337 l 327 365 z m 308 331 l 311 330 l 312 332 l 308 331 z m 311 330 l 233 162 l 233 145 l 366 90 l 514 212 l 311 330 z"},"'":{"x_min":0,"x_max":231,"ha":231,"o":"m 115 419 b 137 419 143 434 145 444 l 165 582 b 167 595 168 611 168 624 b 168 647 157 675 115 675 b 74 675 63 648 63 623 b 63 611 64 595 66 582 l 87 444 b 88 434 94 419 115 419 z"},"=":{"x_min":0,"x_max":528,"ha":528,"o":"m 30 291 l 499 291 l 499 376 l 30 376 l 30 291 z m 30 93 l 499 93 l 499 178 l 30 178 l 30 93 z"},"a":{"x_min":0,"x_max":527,"ha":527,"o":"m 516 50 b 507 46 498 40 482 40 b 463 40 454 50 454 100 l 454 320 b 454 431 403 480 289 480 b 130 480 67 413 67 356 b 67 324 92 294 136 294 b 179 294 205 324 205 357 b 205 390 180 395 180 414 b 180 429 206 440 238 440 b 296 440 312 410 313 355 l 313 280 b 145 249 37 186 37 95 b 37 25 88 -11 175 -11 b 238 -11 282 11 316 38 b 325 9 354 -11 407 -11 b 456 -11 494 0 527 21 l 516 50 z m 178 118 b 178 177 219 214 313 239 l 313 78 b 293 63 268 49 242 49 b 199 49 178 69 178 118 z"},"L":{"x_min":0,"x_max":594,"ha":594,"o":"m 37 0 l 553 0 l 565 177 l 530 177 b 505 69 452 38 345 38 b 274 38 262 43 262 101 l 262 569 b 262 619 268 627 336 627 l 336 660 l 37 660 l 37 627 b 104 627 110 619 110 569 l 110 89 b 110 41 105 33 37 33 l 37 0 z"},"3":{"x_min":0,"x_max":560,"ha":560,"o":"m 240 -11 b 401 -11 493 63 493 179 b 493 305 386 356 301 362 l 301 365 b 403 381 469 437 469 518 b 468 620 368 671 249 671 b 142 671 51 630 51 556 b 51 512 83 484 126 484 b 167 484 196 510 196 548 b 196 576 181 582 181 600 b 181 621 205 635 236 635 b 296 635 317 584 317 510 b 317 468 310 379 221 379 b 210 379 186 380 166 381 l 166 337 b 200 339 217 340 227 340 b 304 340 340 288 340 188 b 340 84 301 25 229 25 b 194 25 171 38 171 63 b 171 80 182 91 182 114 b 182 150 154 181 112 181 b 71 181 37 152 37 104 b 37 30 121 -11 240 -11 z"},";":{"x_min":0,"x_max":285,"ha":285,"o":"m 142 267 b 185 267 219 302 219 343 b 219 386 184 420 142 420 b 101 420 66 385 66 343 b 66 302 100 267 142 267 z m 86 -119 b 172 -107 221 -35 221 47 b 221 120 181 144 142 144 b 94 144 66 108 66 66 b 66 20 98 0 130 -9 b 143 -13 153 -15 153 -32 b 153 -64 108 -84 82 -88 l 86 -119 z"},"J":{"x_min":0,"x_max":399,"ha":399,"o":"m 68 -211 b 248 -211 296 -111 296 84 l 296 569 b 296 618 301 627 369 627 l 369 660 l 72 660 l 72 627 b 137 627 144 619 144 569 l 144 -50 b 144 -134 124 -174 72 -174 b 58 -174 51 -168 51 -164 b 51 -151 70 -142 70 -108 b 70 -65 34 -42 3 -42 b -33 -42 -68 -65 -68 -119 b -68 -170 -28 -211 68 -211 z"},"V":{"x_min":0,"x_max":674,"ha":674,"o":"m 290 0 l 385 0 l 590 566 b 607 612 626 627 669 627 l 669 660 l 470 660 l 470 627 l 515 627 b 545 627 549 610 539 580 l 397 150 l 394 150 l 243 584 b 232 613 242 627 268 627 l 311 627 l 311 660 l 11 660 l 11 627 b 57 627 73 617 87 577 l 290 0 z"},"\"":{"x_min":0,"x_max":419,"ha":419,"o":"m 228 675 b 221 675 214 674 209 673 b 203 674 197 675 190 675 b 149 675 137 647 137 624 b 137 611 139 595 141 582 l 161 444 b 162 434 169 419 190 419 b 198 419 205 421 209 425 b 213 421 220 419 228 419 b 250 419 256 434 258 444 l 278 582 b 280 595 281 611 281 624 b 281 647 270 675 228 675 z"},"7":{"x_min":0,"x_max":547,"ha":547,"o":"m 212 -12 b 265 -12 293 18 294 76 b 296 136 269 248 372 412 b 403 460 460 544 492 585 l 492 660 l 49 660 l 32 496 l 65 496 l 72 514 b 85 545 106 554 146 554 l 412 554 b 389 522 327 437 280 376 b 199 268 131 163 131 77 b 131 21 158 -12 212 -12 z"},"S":{"x_min":0,"x_max":527,"ha":527,"o":"m 49 0 l 77 0 b 81 10 91 18 106 18 b 134 18 176 -12 258 -12 b 396 -12 493 69 493 203 b 493 307 429 364 338 398 l 273 422 b 225 441 148 467 148 539 b 148 598 198 640 266 640 b 346 640 406 584 426 489 l 460 489 l 450 664 l 422 664 b 419 652 414 645 398 645 b 366 645 336 672 264 672 b 130 672 43 593 43 474 b 43 364 114 311 218 272 l 269 254 b 341 227 379 193 379 133 b 379 56 321 21 255 21 b 150 21 86 119 71 191 l 36 191 l 49 0 z"},"}":{"x_min":0,"x_max":316,"ha":316,"o":"m 30 -130 l 72 -130 b 178 -130 208 -67 208 -3 l 208 178 b 208 229 231 251 276 251 l 276 283 b 229 283 208 305 208 348 l 208 533 b 208 605 173 660 75 660 l 30 660 l 30 627 b 90 627 96 594 96 554 l 96 372 b 96 328 96 290 186 269 l 186 264 b 98 244 96 211 96 166 l 96 -21 b 96 -69 88 -97 30 -97 l 30 -130 z"},"Z":{"x_min":0,"x_max":596,"ha":596,"o":"m 20 0 l 564 0 l 576 187 l 541 187 b 505 58 466 36 331 35 l 194 35 l 560 628 l 561 660 l 55 660 l 55 484 l 90 484 b 105 588 142 625 259 625 l 384 625 l 20 33 l 20 0 z"},"x":{"x_min":0,"x_max":554,"ha":554,"o":"m 467 77 l 330 281 l 421 405 b 438 428 463 437 503 437 l 503 470 l 342 470 l 342 437 l 365 437 b 378 437 385 428 374 411 l 308 313 l 248 402 b 232 425 239 437 258 437 l 276 437 l 276 470 l 17 470 l 17 437 b 57 437 70 430 86 406 l 211 214 l 103 77 b 76 42 49 33 10 33 l 10 0 l 190 0 l 190 33 l 168 33 b 146 33 141 51 154 70 l 232 182 l 308 66 b 320 47 317 33 295 33 l 272 33 l 272 0 l 544 0 l 544 33 b 505 33 488 45 467 77 z"},")":{"x_min":0,"x_max":372,"ha":372,"o":"m 30 -124 b 216 -120 297 70 297 266 b 297 462 216 652 30 657 l 27 632 b 121 604 167 437 167 267 b 167 94 119 -71 27 -101 l 30 -124 z"},"&":{"x_min":0,"x_max":775,"ha":775,"o":"m 559 154 b 585 199 602 248 613 296 b 622 337 626 341 681 341 l 681 366 l 493 366 l 493 341 b 554 341 569 335 569 293 b 569 259 557 219 534 181 l 344 386 b 456 446 501 481 501 546 b 501 625 446 672 323 672 b 205 672 113 611 113 507 b 113 447 144 395 189 344 b 103 304 25 261 25 159 b 25 37 135 -11 266 -11 b 352 -11 418 12 468 49 b 500 20 539 0 641 0 l 742 0 l 742 27 b 691 27 668 39 559 154 z m 321 643 b 368 643 398 613 398 540 b 398 490 385 454 320 412 b 271 467 240 508 240 555 b 240 608 270 643 321 643 z m 170 194 b 170 255 191 290 218 313 l 436 83 b 401 62 359 49 313 49 b 229 49 170 94 170 194 z"},"_":{"x_min":0,"x_max":547,"ha":547,"o":"m 40 -117 l 507 -117 l 507 -70 l 40 -70 l 40 -117 z"},"v":{"x_min":0,"x_max":523,"ha":523,"o":"m 216 0 l 289 0 l 455 396 b 467 428 481 437 516 437 l 516 470 l 354 470 l 354 437 l 391 437 b 411 437 414 424 409 408 l 304 140 l 302 140 l 196 410 b 190 427 195 437 213 437 l 252 437 l 252 470 l -4 470 l -4 437 b 32 437 43 429 55 400 l 216 0 z"},"O":{"x_min":0,"x_max":739,"ha":739,"o":"m 369 -11 b 588 -11 700 118 700 331 b 700 544 588 672 369 672 b 150 672 39 544 39 331 b 39 118 150 -11 369 -11 z m 370 25 b 250 25 203 130 203 331 b 203 531 250 636 370 636 b 484 636 537 531 537 331 b 537 130 490 25 370 25 z"},"(":{"x_min":0,"x_max":373,"ha":373,"o":"m 343 -124 l 346 -101 b 254 -71 206 94 206 267 b 206 437 252 604 346 632 l 343 657 b 157 652 76 462 76 266 b 76 70 157 -120 343 -124 z"},"C":{"x_min":0,"x_max":665,"ha":665,"o":"m 378 -12 b 539 -12 605 76 633 158 l 604 171 b 579 99 520 24 403 24 b 261 24 202 159 202 330 b 202 437 229 636 403 636 b 513 636 574 562 591 471 l 624 471 l 614 660 l 587 660 l 583 650 b 579 641 570 635 557 635 b 530 635 490 672 384 672 b 168 672 39 547 39 323 b 39 104 167 -12 378 -12 z"},"W":{"x_min":0,"x_max":932,"ha":932,"o":"m 243 0 l 323 0 l 467 483 l 469 483 l 614 0 l 698 0 l 846 544 b 864 613 880 627 927 627 l 927 660 l 733 660 l 733 627 l 777 627 b 812 627 815 613 806 580 l 709 197 l 706 197 l 574 646 l 474 646 l 343 193 l 340 193 l 234 586 b 226 617 232 627 260 627 l 300 627 l 300 660 l 11 660 l 11 627 b 58 627 70 614 81 577 l 243 0 z"},"A":{"x_min":0,"x_max":709,"ha":709,"o":"m 618 83 l 410 660 l 315 660 l 95 88 b 77 42 62 33 7 33 l 7 0 l 215 0 l 215 33 l 173 33 b 145 33 139 45 147 72 l 204 234 l 410 234 l 467 75 b 475 49 470 33 443 33 l 396 33 l 396 0 l 696 0 l 696 33 b 643 33 635 39 618 83 z m 217 271 l 305 518 l 308 518 l 397 271 l 217 271 z"},"f":{"x_min":0,"x_max":337,"ha":337,"o":"m 27 0 l 317 0 l 317 33 b 244 33 233 39 233 83 l 233 434 l 331 434 l 331 470 l 233 470 l 233 571 b 233 629 245 676 289 676 b 307 676 320 667 320 652 b 320 632 299 630 299 597 b 299 562 323 539 362 539 b 404 539 425 565 425 603 b 425 665 368 704 283 704 b 166 704 91 631 91 523 l 91 470 l 27 470 l 27 434 l 91 434 l 91 83 b 91 41 84 33 27 33 l 27 0 z"},"Q":{"x_min":0,"x_max":739,"ha":739,"o":"m 700 331 b 700 544 588 672 369 672 b 150 672 39 544 39 331 b 39 145 124 22 292 -5 b 296 -97 351 -171 470 -171 b 541 -171 587 -135 603 -120 l 585 -87 b 566 -101 542 -112 517 -112 b 475 -112 450 -72 448 -5 b 615 24 700 145 700 331 z m 370 25 b 250 25 203 130 203 331 b 203 531 250 636 370 636 b 484 636 537 531 537 331 b 537 130 490 25 370 25 z"},"w":{"x_min":0,"x_max":739,"ha":739,"o":"m 179 0 l 247 0 l 360 325 l 365 325 l 476 0 l 544 0 l 670 396 b 679 423 692 437 731 437 l 731 470 l 572 470 l 572 437 l 598 437 b 618 437 628 430 621 404 l 554 163 l 552 163 l 455 467 l 362 467 l 262 161 l 260 161 l 193 402 b 186 429 193 437 211 437 l 239 437 l 239 470 l -4 470 l -4 437 b 27 437 40 431 49 400 l 179 0 z"},"-":{"x_min":0,"x_max":391,"ha":391,"o":"m 60 222 l 331 222 l 331 315 l 60 315 l 60 222 z"},"E":{"x_min":0,"x_max":611,"ha":611,"o":"m 37 0 l 570 0 l 582 178 l 547 178 b 523 68 474 38 371 38 b 269 38 262 48 262 104 l 262 323 l 373 323 b 433 323 445 306 454 234 l 484 234 l 484 456 l 454 456 b 444 385 433 367 373 367 l 262 367 l 262 588 b 262 614 270 622 299 622 l 372 622 b 468 622 497 598 521 499 l 556 499 l 556 660 l 37 660 l 37 627 b 102 627 110 620 110 570 l 110 89 b 110 41 103 33 37 33 l 37 0 z"},"s":{"x_min":0,"x_max":447,"ha":447,"o":"m 224 -12 b 346 -12 416 56 416 151 b 416 227 372 269 277 300 l 231 314 b 194 327 151 345 151 385 b 151 420 183 446 232 446 b 294 446 339 403 358 333 l 388 333 l 381 479 l 356 479 b 353 470 350 461 334 461 b 309 461 288 481 223 481 b 112 481 43 423 43 330 b 43 264 79 222 173 189 l 226 174 b 285 152 308 135 308 97 b 308 46 267 24 218 24 b 144 24 87 76 71 162 l 39 162 l 48 -1 l 72 -1 b 78 7 85 13 99 13 b 128 13 151 -12 224 -12 z"},">":{"x_min":0,"x_max":564,"ha":564,"o":"m 238 337 l 253 332 l 238 365 l 238 337 z m 253 332 l 254 330 l 256 331 l 253 332 z m 254 330 l 50 212 l 199 90 l 331 145 l 331 162 l 254 330 z"},"l":{"x_min":0,"x_max":311,"ha":311,"o":"m 23 0 l 287 0 l 287 33 b 237 33 229 42 229 83 l 229 690 l 186 690 l 25 665 l 25 632 l 58 632 b 82 632 87 624 87 593 l 87 83 b 87 41 81 33 23 33 l 23 0 z"},"8":{"x_min":0,"x_max":560,"ha":560,"o":"m 263 -11 b 391 -11 508 60 508 190 b 508 285 448 338 366 381 b 428 412 489 453 489 529 b 489 634 372 671 288 671 b 171 671 64 600 64 482 b 64 406 107 357 169 320 b 97 284 42 234 42 153 b 42 34 161 -11 263 -11 z m 334 399 b 258 440 180 474 180 543 b 180 597 226 636 285 636 b 351 636 398 589 398 525 b 398 483 378 429 334 399 z m 266 25 b 180 25 135 89 135 169 b 135 224 157 265 201 301 b 295 244 391 209 391 131 b 391 68 336 25 266 25 z"},"\\":{"x_min":0,"x_max":368,"ha":368,"o":"m 266 -12 l 362 -12 l 101 671 l 6 671 l 266 -12 z"},"e":{"x_min":0,"x_max":520,"ha":520,"o":"m 484 240 b 484 390 419 481 264 481 b 116 481 36 399 36 234 b 36 71 113 -11 261 -11 b 402 -11 447 63 474 126 l 440 144 b 415 87 373 51 305 51 b 220 51 189 107 185 231 l 484 231 l 484 240 z m 185 267 b 186 405 213 445 263 445 b 323 445 335 388 335 267 l 185 267 z"},"b":{"x_min":0,"x_max":595,"ha":595,"o":"m 367 481 b 305 481 262 460 228 431 l 227 431 l 227 690 l 183 690 l 23 666 l 23 632 l 51 632 b 80 632 85 625 85 592 l 85 0 l 134 0 l 162 30 b 207 7 251 -12 316 -12 b 467 -12 559 75 559 247 b 559 402 487 481 367 481 z m 307 24 b 275 24 249 40 227 62 l 227 380 b 249 402 275 425 308 425 b 379 425 410 353 410 228 b 410 81 378 24 307 24 z"},"%":{"x_min":0,"x_max":860,"ha":860,"o":"m 215 -12 l 270 -12 l 639 672 l 584 672 l 215 -12 z m 225 321 b 319 321 390 392 390 496 b 390 607 320 670 225 670 b 131 670 60 605 60 496 b 60 384 132 321 225 321 z m 226 352 b 177 352 172 438 172 496 b 172 555 177 639 226 639 b 274 639 279 555 279 496 b 279 431 274 352 226 352 z m 636 -10 b 730 -10 801 61 801 164 b 801 275 731 339 636 339 b 542 339 471 274 471 164 b 471 53 543 -10 636 -10 z m 636 21 b 587 21 582 106 582 164 b 582 224 587 308 636 308 b 684 308 689 224 689 164 b 689 100 684 21 636 21 z"},"m":{"x_min":0,"x_max":923,"ha":923,"o":"m 839 83 l 839 324 b 839 434 781 481 688 481 b 615 481 560 453 527 402 b 509 446 463 481 390 481 b 318 481 267 449 229 411 l 227 411 l 227 475 l 184 475 l 27 450 l 27 417 l 60 417 b 84 417 89 409 89 379 l 89 83 b 89 41 82 33 25 33 l 25 0 l 286 0 l 286 33 b 241 33 231 38 231 81 l 231 373 b 261 406 286 420 319 420 b 367 420 393 391 393 318 l 393 78 b 393 39 387 33 341 33 l 341 0 l 589 0 l 589 33 b 541 33 535 42 535 83 l 535 355 b 553 395 580 420 621 420 b 669 420 697 390 697 318 l 697 78 b 697 39 690 33 644 33 l 644 0 l 899 0 l 899 33 b 846 33 839 41 839 83 z"},"#":{"x_min":0,"x_max":499,"ha":499,"o":"m 478 388 l 478 458 l 399 458 l 427 660 l 353 660 l 325 458 l 211 458 l 239 660 l 165 660 l 137 458 l 47 458 l 47 388 l 127 388 l 111 269 l 21 269 l 21 198 l 101 198 l 74 0 l 148 0 l 175 198 l 289 198 l 262 0 l 336 0 l 363 198 l 452 198 l 452 269 l 373 269 l 389 388 l 478 388 z m 299 269 l 185 269 l 201 388 l 315 388 l 299 269 z"},",":{"x_min":0,"x_max":279,"ha":279,"o":"m 86 -119 b 172 -107 221 -35 221 47 b 221 120 181 144 142 144 b 94 144 66 108 66 66 b 66 20 98 0 130 -9 b 143 -13 153 -15 153 -32 b 153 -64 108 -84 82 -88 l 86 -119 z"},"n":{"x_min":0,"x_max":623,"ha":623,"o":"m 538 83 l 538 324 b 538 432 482 481 393 481 b 319 481 269 446 230 409 l 227 409 l 227 475 l 184 475 l 27 450 l 27 417 l 60 417 b 84 417 89 409 89 379 l 89 83 b 89 41 82 33 25 33 l 25 0 l 286 0 l 286 33 b 241 33 231 38 231 81 l 231 372 b 261 402 286 420 323 420 b 369 420 396 391 396 318 l 396 78 b 396 39 390 33 344 33 l 344 0 l 599 0 l 599 33 b 545 33 538 42 538 83 z"},"h":{"x_min":0,"x_max":620,"ha":620,"o":"m 535 83 l 535 324 b 535 432 479 481 390 481 b 317 481 267 447 231 413 l 229 413 l 229 690 l 185 690 l 25 665 l 25 632 l 58 632 b 82 632 87 624 87 594 l 87 83 b 87 41 80 33 23 33 l 23 0 l 284 0 l 284 33 b 236 33 229 42 229 81 l 229 371 b 260 405 285 420 319 420 b 367 420 393 391 393 318 l 393 78 b 393 42 388 33 341 33 l 341 0 l 596 0 l 596 33 b 542 33 535 42 535 83 z"},"z":{"x_min":0,"x_max":469,"ha":469,"o":"m 22 0 l 439 0 l 450 165 l 420 165 b 392 58 366 32 258 32 l 170 32 l 434 427 l 434 470 l 51 470 l 40 325 l 70 325 b 87 417 134 439 206 439 l 286 439 l 22 56 l 22 0 z"},"B":{"x_min":0,"x_max":650,"ha":650,"o":"m 37 0 l 359 0 b 525 0 619 53 619 177 b 619 278 559 336 444 356 l 444 357 b 539 377 591 427 591 508 b 591 616 499 660 348 660 l 37 660 l 37 627 b 102 627 110 620 110 569 l 110 89 b 110 44 102 33 37 33 l 37 0 z m 262 371 l 262 582 b 262 615 269 622 313 622 b 400 622 443 580 443 499 b 443 416 398 371 312 371 l 262 371 z m 332 38 b 279 38 262 54 262 103 l 262 332 l 314 332 b 407 332 460 275 460 176 b 460 85 417 38 332 38 z"},"K":{"x_min":0,"x_max":724,"ha":724,"o":"m 564 178 l 396 421 l 494 518 b 564 588 606 627 668 627 l 668 660 l 454 660 l 454 627 l 484 627 b 513 627 515 605 494 582 l 262 341 l 262 569 b 262 619 269 627 334 627 l 334 660 l 37 660 l 37 627 b 104 627 110 619 110 569 l 110 89 b 110 41 105 33 37 33 l 37 0 l 334 0 l 334 33 b 267 33 262 40 262 89 l 262 289 l 292 318 l 449 86 b 472 50 472 33 441 33 l 415 33 l 415 0 l 719 0 l 719 33 b 661 33 636 73 564 178 z"},"R":{"x_min":0,"x_max":660,"ha":660,"o":"m 37 0 l 332 0 l 332 33 b 270 33 262 41 262 89 l 262 306 l 309 306 b 361 306 383 278 393 230 l 423 92 b 432 50 450 14 468 0 l 652 0 l 652 33 b 592 33 575 70 561 139 l 552 181 b 536 270 510 313 424 330 l 424 332 b 516 347 588 398 588 498 b 588 601 513 660 345 660 l 37 660 l 37 627 b 102 627 110 619 110 570 l 110 89 b 110 41 105 33 37 33 l 37 0 z m 262 346 l 262 585 b 262 613 269 622 308 622 b 397 622 435 577 435 485 b 435 389 393 346 303 346 l 262 346 z"},"T":{"x_min":0,"x_max":623,"ha":623,"o":"m 158 0 l 466 0 l 466 33 b 396 33 388 39 388 88 l 388 625 l 430 625 b 508 625 549 594 569 485 l 603 485 l 603 660 l 21 660 l 20 485 l 55 485 b 70 583 110 625 189 625 l 236 625 l 236 88 b 236 39 231 33 158 33 l 158 0 z"},"P":{"x_min":0,"x_max":613,"ha":613,"o":"m 37 0 l 339 0 l 339 33 b 270 33 262 40 262 89 l 262 262 l 301 262 b 510 262 594 347 594 470 b 594 570 526 660 336 660 l 37 660 l 37 627 b 102 627 110 619 110 570 l 110 89 b 110 41 105 33 37 33 l 37 0 z m 262 302 l 262 587 b 262 614 268 622 306 622 b 394 622 438 567 438 467 b 438 355 382 302 303 302 l 262 302 z"},"|":{"x_min":0,"x_max":266,"ha":266,"o":"m 91 -198 l 175 -198 l 175 729 l 91 729 l 91 -198 z"},"t":{"x_min":0,"x_max":338,"ha":338,"o":"m 202 -12 b 277 -12 315 21 341 39 l 324 67 b 315 62 292 48 268 48 b 227 48 212 79 212 141 l 212 434 l 310 434 l 310 470 l 212 470 l 212 647 l 179 647 b 155 559 89 481 10 467 l 10 434 l 70 434 l 70 135 b 70 29 118 -12 202 -12 z"},"M":{"x_min":0,"x_max":866,"ha":866,"o":"m 27 0 l 227 0 l 227 33 l 197 33 b 149 33 142 42 142 86 l 142 546 l 144 546 l 351 14 l 401 14 l 604 552 l 606 552 l 606 89 b 606 43 601 33 537 33 l 537 0 l 828 0 l 828 33 b 763 33 756 42 756 89 l 756 570 b 756 619 762 626 828 627 l 828 660 l 607 660 l 434 210 l 432 210 l 257 660 l 26 660 l 26 627 b 93 626 100 619 100 570 l 100 86 b 100 46 94 33 47 33 l 27 33 l 27 0 z"},"g":{"x_min":0,"x_max":570,"ha":570,"o":"m 487 481 b 453 481 422 469 400 438 b 362 466 308 480 247 480 b 135 480 37 431 37 320 b 37 249 78 204 139 182 b 93 159 64 126 64 84 b 64 52 81 25 107 8 b 48 -15 21 -50 21 -94 b 21 -175 110 -212 237 -212 b 399 -212 497 -154 497 -36 b 497 56 439 108 317 108 l 214 108 b 162 108 148 124 148 138 b 148 151 162 163 179 172 b 199 168 222 166 245 166 b 361 166 457 213 457 321 b 457 360 445 392 423 416 b 437 435 452 440 463 440 b 475 440 479 434 479 430 b 479 424 476 419 476 407 b 476 389 489 376 514 376 b 545 376 558 396 558 423 b 558 459 531 481 487 481 z m 247 198 b 197 198 181 232 181 321 b 181 413 198 448 250 448 b 301 448 317 414 317 327 b 317 232 293 198 247 198 z m 407 -85 b 407 -149 344 -180 260 -180 b 168 -180 124 -141 124 -85 b 124 -57 135 -29 162 -9 l 164 -9 l 265 -9 b 360 -9 407 -29 407 -85 z"},"j":{"x_min":0,"x_max":266,"ha":266,"o":"m 123 530 b 167 530 206 565 206 610 b 206 653 168 689 124 689 b 79 689 41 653 41 609 b 41 564 79 530 123 530 z m 20 -212 b 142 -212 199 -118 199 21 l 199 475 l 154 475 l -5 450 l -5 417 l 28 417 b 52 417 57 409 57 379 l 57 -74 b 57 -163 53 -181 22 -181 b 13 -181 -2 -175 -2 -162 b -2 -144 17 -140 17 -113 b 16 -76 -14 -61 -44 -61 b -79 -61 -104 -90 -104 -125 b -104 -184 -42 -212 20 -212 z"},"i":{"x_min":0,"x_max":313,"ha":313,"o":"m 155 531 b 199 531 238 566 238 610 b 238 654 200 690 155 690 b 111 690 73 654 73 610 b 73 565 111 531 155 531 z m 24 0 l 288 0 l 288 33 b 237 33 230 41 230 83 l 230 475 l 186 475 l 26 450 l 26 417 l 59 417 b 83 417 88 409 88 379 l 88 83 b 88 41 81 33 24 33 l 24 0 z"},"y":{"x_min":0,"x_max":515,"ha":515,"o":"m 348 470 l 348 437 l 381 437 b 398 437 405 425 399 407 l 305 160 l 303 160 l 213 402 b 204 426 213 437 229 437 l 260 437 l 260 470 l -6 470 l -6 437 b 42 437 48 433 63 396 l 235 -21 l 214 -77 b 188 -146 165 -173 142 -173 b 131 -173 124 -167 124 -158 b 124 -145 141 -142 141 -114 b 141 -80 118 -54 80 -54 b 41 -54 14 -86 14 -122 b 14 -172 59 -211 114 -211 b 216 -211 240 -105 289 12 l 440 382 b 460 431 474 437 507 437 l 507 470 l 348 470 z"},"@":{"x_min":0,"x_max":798,"ha":798,"o":"m 386 -13 b 449 -13 532 1 586 36 l 576 65 b 532 47 470 34 409 34 b 205 34 147 180 147 291 b 147 459 268 620 443 620 b 574 620 681 535 681 393 b 681 309 636 200 569 200 b 539 200 543 219 551 249 l 618 506 l 517 506 l 514 496 b 495 504 486 510 460 510 b 289 510 207 344 207 252 b 207 185 248 156 295 156 b 363 156 425 211 463 288 l 466 286 l 454 237 b 441 184 467 156 529 156 b 664 156 761 273 761 395 b 761 542 632 670 444 670 b 241 670 37 524 37 292 b 37 82 212 -13 386 -13 z m 348 203 b 332 203 324 221 324 246 b 324 312 383 478 472 478 b 485 478 496 475 506 467 l 472 374 b 447 306 387 203 348 203 z"},".":{"x_min":0,"x_max":297,"ha":297,"o":"m 148 -9 b 191 -9 225 25 225 67 b 225 110 190 144 148 144 b 107 144 72 109 72 67 b 72 25 106 -9 148 -9 z"},"p":{"x_min":0,"x_max":599,"ha":599,"o":"m 372 481 b 307 481 260 456 225 422 l 224 422 l 224 475 l 181 475 l 25 451 l 25 417 l 53 417 b 82 417 87 410 87 383 l 87 -117 b 87 -160 80 -167 23 -167 l 23 -200 l 293 -200 l 293 -167 b 237 -167 228 -159 228 -117 l 228 4 b 255 -6 284 -12 318 -12 b 473 -12 564 79 564 248 b 564 402 491 481 372 481 z m 310 24 b 276 24 249 43 228 66 l 228 378 b 246 398 276 425 314 425 b 383 425 415 352 415 229 b 415 85 383 24 310 24 z"},"X":{"x_min":0,"x_max":684,"ha":684,"o":"m 561 108 l 392 384 l 519 568 b 553 615 572 627 625 627 l 625 660 l 425 660 l 425 627 l 452 627 b 483 627 485 602 469 577 l 373 420 l 369 420 l 271 588 b 257 612 265 627 290 627 l 320 627 l 320 660 l 18 660 l 18 627 b 66 627 75 620 102 576 l 264 309 l 108 87 b 81 48 65 33 12 33 l 12 0 l 220 0 l 220 33 l 178 33 b 154 33 144 50 158 74 l 285 274 l 286 274 l 403 79 b 421 52 416 33 388 33 l 348 33 l 348 0 l 673 0 l 673 33 b 617 33 598 48 561 108 z"},"*":{"x_min":0,"x_max":375,"ha":375,"o":"m 187 305 b 224 305 243 323 236 347 l 207 448 l 210 449 l 282 374 b 300 357 324 362 343 396 b 363 428 356 453 332 458 l 229 485 l 229 488 l 332 513 b 356 519 363 544 343 577 b 324 611 300 615 283 598 l 209 522 l 207 524 l 236 625 b 243 649 224 667 187 667 b 149 667 131 649 138 625 l 167 525 l 164 524 l 91 598 b 73 615 50 609 30 577 b 12 544 18 519 42 513 l 142 488 l 142 485 l 43 459 b 20 454 11 429 30 396 b 49 363 74 356 91 374 l 163 448 l 167 446 l 138 347 b 131 323 149 305 187 305 z"},"Y":{"x_min":0,"x_max":652,"ha":652,"o":"m 444 660 l 444 627 l 481 627 b 505 627 524 609 505 568 l 388 317 l 386 317 l 263 577 b 246 614 256 627 280 627 l 323 627 l 323 660 l 11 660 l 11 627 b 64 627 75 614 94 577 l 255 254 l 255 90 b 255 42 250 33 178 33 l 178 0 l 485 0 l 485 33 b 414 33 405 40 405 90 l 405 265 l 556 563 b 580 610 595 627 647 627 l 647 660 l 444 660 z"},"c":{"x_min":0,"x_max":496,"ha":496,"o":"m 265 -11 b 398 -11 441 58 467 128 l 436 144 b 413 97 384 51 306 51 b 222 51 185 104 185 260 b 185 409 221 445 280 445 b 321 445 339 428 339 406 b 339 386 323 377 323 348 b 323 311 349 289 389 289 b 435 289 457 317 457 358 b 457 424 398 481 276 481 b 129 481 36 397 36 229 b 36 70 120 -11 265 -11 z"},"!":{"x_min":0,"x_max":319,"ha":319,"o":"m 136 201 l 184 201 l 234 548 b 237 566 238 582 238 593 b 238 637 217 671 160 671 b 103 671 83 636 83 593 b 83 582 84 566 86 548 l 136 201 z m 159 -10 b 204 -10 238 24 238 68 b 238 112 205 148 160 148 b 116 148 81 113 81 68 b 81 23 116 -10 159 -10 z"},"/":{"x_min":0,"x_max":362,"ha":362,"o":"m 6 -12 l 100 -12 l 356 671 l 262 671 l 6 -12 z"},"[":{"x_min":0,"x_max":317,"ha":317,"o":"m 100 -130 l 296 -130 l 296 -97 l 209 -97 l 209 628 l 296 628 l 296 660 l 100 660 l 100 -130 z"},"6":{"x_min":0,"x_max":600,"ha":600,"o":"m 304 -12 b 461 -12 548 80 548 211 b 548 337 467 420 351 421 b 279 421 236 389 202 345 l 200 346 b 205 554 340 652 464 652 l 464 686 b 212 686 47 540 47 283 b 47 93 137 -12 304 -12 z m 304 25 b 231 25 201 112 201 203 b 201 307 239 361 299 361 b 363 361 401 297 401 191 b 401 95 370 25 304 25 z"},"r":{"x_min":0,"x_max":454,"ha":454,"o":"m 355 480 b 289 480 251 427 230 383 l 227 383 l 227 475 l 184 475 l 27 450 l 27 417 l 60 417 b 84 417 89 409 89 379 l 89 83 b 89 41 82 33 25 33 l 25 0 l 308 0 l 308 33 b 241 33 231 41 231 83 l 231 271 l 232 271 b 232 342 278 428 312 428 b 319 428 323 424 323 420 b 323 412 306 406 306 376 b 306 338 332 316 372 316 b 422 316 444 352 444 393 b 444 443 412 480 355 480 z"},"2":{"x_min":0,"x_max":571,"ha":571,"o":"m 42 0 l 489 0 l 519 173 l 486 173 b 474 127 457 108 403 108 l 122 108 b 136 158 214 208 312 267 b 442 342 506 393 506 495 b 506 618 415 672 283 672 b 175 672 71 637 71 541 b 71 491 100 462 145 462 b 192 462 218 494 218 535 b 218 567 202 576 202 596 b 202 621 226 637 259 637 b 317 637 351 585 351 506 b 351 392 282 331 208 269 b 126 199 42 126 42 10 l 42 0 z"},"{":{"x_min":0,"x_max":316,"ha":316,"o":"m 244 -130 l 286 -130 l 286 -97 b 228 -97 221 -69 221 -21 l 221 166 b 221 211 219 244 131 264 l 131 269 b 221 290 221 328 221 372 l 221 554 b 221 594 227 627 286 627 l 286 660 l 241 660 b 143 660 109 605 109 533 l 109 348 b 109 305 87 283 40 283 l 40 251 b 85 251 109 229 109 178 l 109 -3 b 109 -67 138 -130 244 -130 z"},"9":{"x_min":0,"x_max":600,"ha":600,"o":"m 136 -28 b 388 -28 553 119 553 375 b 553 566 462 671 296 671 b 139 671 52 579 52 448 b 52 322 133 239 248 238 b 321 237 364 270 398 313 l 400 313 b 395 105 260 5 136 5 l 136 -28 z m 301 298 b 237 298 199 362 199 468 b 199 564 230 634 296 634 b 369 634 399 547 399 456 b 399 352 361 298 301 298 z"}," ":{"x_min":0,"x_max":222,"ha":222,"o":""},"I":{"x_min":0,"x_max":372,"ha":372,"o":"m 37 0 l 334 0 l 334 33 b 269 33 262 39 262 89 l 262 569 b 262 619 269 627 334 627 l 334 660 l 37 660 l 37 627 b 102 627 110 619 110 569 l 110 89 b 110 41 105 33 37 33 l 37 0 z"},"H":{"x_min":0,"x_max":785,"ha":785,"o":"m 37 0 l 333 0 l 333 33 b 265 33 261 42 261 89 l 261 325 l 523 325 l 523 89 b 523 43 522 33 451 33 l 451 0 l 747 0 l 747 33 b 680 33 675 42 675 89 l 675 569 b 675 616 677 627 747 627 l 747 660 l 451 660 l 451 627 b 520 627 523 618 523 569 l 523 365 l 261 365 l 261 569 b 261 617 263 627 333 627 l 333 660 l 37 660 l 37 627 b 106 627 109 618 109 569 l 109 89 b 109 44 108 33 37 33 l 37 0 z"},"4":{"x_min":0,"x_max":560,"ha":560,"o":"m 218 0 l 505 0 l 505 35 l 456 35 b 438 35 431 42 431 69 l 431 172 l 528 172 l 528 262 l 431 262 l 431 668 l 329 668 b 244 554 127 395 27 238 l 27 172 l 293 172 l 293 69 b 293 42 283 35 269 35 l 218 35 l 218 0 z m 97 262 b 144 342 223 450 291 546 l 293 546 l 293 262 l 97 262 z"},"~":{"x_min":0,"x_max":515,"ha":515,"o":"m 77 159 b 93 188 116 228 156 228 b 191 228 224 211 256 194 b 288 177 322 163 357 163 b 416 163 448 205 472 242 l 439 310 b 419 279 394 242 358 242 b 334 242 300 260 266 275 b 231 291 193 307 159 307 b 98 307 64 265 44 227 l 77 159 z"},"D":{"x_min":0,"x_max":754,"ha":754,"o":"m 37 0 l 332 0 b 576 0 714 94 714 339 b 714 561 592 658 365 660 l 37 660 l 37 627 b 109 627 116 620 116 570 l 116 89 b 116 41 113 33 37 33 l 37 0 z m 337 38 b 285 38 268 46 268 96 l 268 585 b 268 619 289 622 343 622 b 481 622 550 527 550 336 b 550 131 484 38 337 38 z"},"^":{"x_min":0,"x_max":560,"ha":560,"o":"m 68 308 l 155 308 l 281 572 l 407 308 l 494 308 l 322 660 l 240 660 l 68 308 z"},"0":{"x_min":0,"x_max":592,"ha":592,"o":"m 296 -11 b 469 -11 545 138 545 330 b 545 522 469 671 296 671 b 124 671 47 522 47 330 b 47 138 124 -11 296 -11 z m 296 24 b 225 24 200 97 200 329 b 200 556 224 636 296 636 b 369 636 393 556 393 329 b 393 97 368 24 296 24 z"},"F":{"x_min":0,"x_max":569,"ha":569,"o":"m 37 0 l 341 0 l 341 33 b 270 33 262 43 262 89 l 262 311 l 368 311 b 428 311 440 294 450 221 l 480 221 l 480 444 l 450 444 b 440 372 428 355 368 355 l 262 355 l 262 588 b 262 614 271 622 299 622 l 358 622 b 454 622 483 598 508 499 l 543 499 l 543 660 l 37 660 l 37 627 b 102 627 110 619 110 570 l 110 89 b 110 41 103 33 37 33 l 37 0 z"},"`":{"x_min":0,"x_max":378,"ha":378,"o":"m 218 545 l 268 545 l 190 714 b 177 741 158 750 137 750 b 112 750 90 730 90 706 b 90 692 93 683 114 658 l 218 545 z"},"k":{"x_min":0,"x_max":582,"ha":582,"o":"m 571 33 b 548 33 522 60 478 122 l 342 312 l 376 346 b 433 401 475 437 533 437 l 541 437 l 541 470 l 335 471 l 335 438 l 360 438 b 387 438 391 415 346 368 l 229 249 l 229 690 l 186 690 l 25 665 l 25 632 l 58 632 b 82 632 87 624 87 593 l 87 83 b 87 41 81 33 23 33 l 23 0 l 283 0 l 283 33 b 233 33 229 42 229 83 l 229 201 l 248 221 l 341 81 b 352 64 362 50 362 43 b 362 36 356 33 344 33 l 330 33 l 330 0 l 581 0 l 581 33 l 571 33 z"},"u":{"x_min":0,"x_max":617,"ha":617,"o":"m 532 72 l 532 475 l 487 475 l 328 452 l 328 419 l 361 419 b 385 419 390 411 390 381 l 390 100 b 359 70 332 50 299 50 b 252 50 225 80 225 155 l 225 475 l 180 475 l 21 452 l 21 419 l 54 419 b 78 419 83 411 83 381 l 83 143 b 83 36 137 -12 226 -12 b 309 -12 362 34 391 64 l 394 64 l 394 0 l 592 0 l 592 33 b 539 33 532 38 532 72 z"},"]":{"x_min":0,"x_max":317,"ha":317,"o":"m 21 -130 l 217 -130 l 217 660 l 21 660 l 21 628 l 108 628 l 108 -97 l 21 -97 l 21 -130 z"},"U":{"x_min":0,"x_max":765,"ha":765,"o":"m 382 -12 b 579 -12 663 61 663 224 l 663 570 b 663 619 667 627 735 627 l 735 660 l 440 660 l 440 627 b 506 627 513 620 513 570 l 513 219 b 513 93 476 31 384 31 b 293 31 257 93 257 219 l 257 570 b 257 620 264 627 330 627 l 330 660 l 33 660 l 33 627 b 100 627 105 619 105 570 l 105 224 b 105 60 187 -12 382 -12 z"},"o":{"x_min":0,"x_max":566,"ha":566,"o":"m 283 -11 b 451 -11 530 67 530 236 b 530 404 451 482 285 482 b 116 482 35 402 35 234 b 35 67 115 -11 283 -11 z m 284 24 b 211 24 184 87 184 233 b 184 373 211 446 282 446 b 352 446 380 381 381 236 b 383 91 355 24 284 24 z"},"N":{"x_min":0,"x_max":709,"ha":709,"o":"m 506 -7 l 606 -7 l 606 579 b 606 611 621 627 652 627 l 676 627 l 676 660 l 478 660 l 478 627 l 513 627 b 547 627 564 611 564 579 l 564 181 l 561 181 l 251 660 l 32 660 l 32 627 b 99 626 106 619 106 570 l 106 85 b 106 49 91 33 59 33 l 33 33 l 33 0 l 233 0 l 233 33 l 198 33 b 160 33 148 48 148 85 l 148 537 l 150 537 l 506 -7 z"},"+":{"x_min":0,"x_max":524,"ha":524,"o":"m 220 116 l 248 4 l 304 82 l 382 194 l 495 222 l 417 279 l 304 357 l 276 469 l 220 391 l 142 279 l 30 251 l 108 194 l 220 116 z"},"G":{"x_min":0,"x_max":717,"ha":717,"o":"m 375 -12 b 494 -12 545 23 574 23 b 595 23 604 15 611 0 l 641 0 l 641 209 b 641 255 654 267 683 267 l 702 267 l 702 299 l 420 299 l 420 267 l 436 267 b 480 267 492 259 492 209 l 492 45 b 471 35 444 24 405 24 b 265 24 202 159 202 328 b 202 436 228 636 405 636 b 512 636 574 561 591 470 l 624 470 l 617 660 l 587 660 l 583 650 b 579 641 570 635 558 635 b 528 635 494 672 381 672 b 169 672 39 542 39 322 b 39 104 169 -12 375 -12 z"},"q":{"x_min":0,"x_max":586,"ha":586,"o":"m 513 -117 l 513 475 l 471 475 l 412 440 b 380 461 346 481 279 481 b 123 481 35 390 35 224 b 35 77 106 -11 226 -11 b 283 -11 328 7 369 42 l 372 42 l 372 -117 b 372 -159 364 -167 304 -167 l 304 -200 l 577 -200 l 577 -167 b 523 -167 513 -158 513 -117 z m 285 46 b 218 46 182 115 182 250 b 182 375 214 445 288 445 b 323 445 350 429 372 410 l 372 97 b 348 72 322 46 285 46 z"},"d":{"x_min":0,"x_max":591,"ha":591,"o":"m 549 33 b 518 33 508 40 508 83 l 508 690 l 465 690 l 305 665 l 305 632 l 339 632 b 359 632 367 624 367 595 l 367 468 l 362 468 b 338 476 313 481 276 481 b 125 481 35 395 35 224 b 35 75 105 -11 225 -11 b 282 -11 329 8 372 44 l 379 0 l 572 0 l 572 33 l 549 33 z m 285 46 b 219 46 182 113 182 252 b 182 381 215 445 288 445 b 320 445 346 431 367 415 l 367 93 b 344 69 320 46 285 46 z"},"1":{"x_min":0,"x_max":492,"ha":492,"o":"m 107 0 l 440 0 l 440 35 l 371 35 b 348 35 342 44 342 75 l 342 660 l 239 660 b 195 622 123 571 67 549 l 67 500 b 105 512 155 537 200 558 l 200 75 b 200 43 195 35 174 35 l 107 35 l 107 0 z"},"5":{"x_min":0,"x_max":554,"ha":554,"o":"m 237 -11 b 404 -11 497 86 497 207 b 497 323 408 409 272 409 b 216 409 159 393 120 358 l 118 359 l 139 556 l 451 556 l 481 685 l 448 685 b 442 664 432 660 401 660 l 111 660 l 76 298 l 113 298 b 148 344 184 367 234 367 b 306 367 344 319 344 202 b 344 91 309 25 232 25 b 202 25 174 36 174 59 b 174 78 191 87 191 114 b 191 151 159 178 119 178 b 77 178 47 148 47 104 b 47 32 126 -11 237 -11 z"}}}
